<mxfile host="app.diagrams.net" agent="Mozilla/5.0 (Windows NT 10.0; Win64; x64) AppleWebKit/537.36 (KHTML, like Gecko) Chrome/131.0.0.0 Safari/537.36" version="24.8.6">
  <diagram name="Page-1" id="VO7_8gTJmaOWlgIard3x">
    <mxGraphModel dx="1366" dy="1850" grid="1" gridSize="10" guides="1" tooltips="1" connect="1" arrows="1" fold="1" page="1" pageScale="1" pageWidth="850" pageHeight="1100" math="0" shadow="0">
      <root>
        <mxCell id="0" />
        <mxCell id="1" parent="0" />
        <mxCell id="yhKgC4SvIW92037m_Auo-1" value="" style="rounded=0;whiteSpace=wrap;html=1;" parent="1" vertex="1">
          <mxGeometry x="230" y="-20" width="540" height="870" as="geometry" />
        </mxCell>
        <mxCell id="yhKgC4SvIW92037m_Auo-2" value="Employee" style="shape=umlActor;verticalLabelPosition=bottom;verticalAlign=top;html=1;outlineConnect=0;" parent="1" vertex="1">
          <mxGeometry x="110" y="70" width="40" height="60" as="geometry" />
        </mxCell>
        <mxCell id="yhKgC4SvIW92037m_Auo-9" value="IBM Chatbot" style="shape=umlActor;verticalLabelPosition=bottom;verticalAlign=top;html=1;outlineConnect=0;" parent="1" vertex="1">
          <mxGeometry x="110" y="320" width="40" height="60" as="geometry" />
        </mxCell>
        <mxCell id="yhKgC4SvIW92037m_Auo-10" value="&lt;font style=&quot;font-size: 15px;&quot;&gt;Have conversation&lt;/font&gt;" style="ellipse;whiteSpace=wrap;html=1;" parent="1" vertex="1">
          <mxGeometry x="345" y="61" width="120" height="50" as="geometry" />
        </mxCell>
        <mxCell id="yhKgC4SvIW92037m_Auo-13" value="&lt;span style=&quot;font-size: 14px;&quot;&gt;Update Database&lt;/span&gt;" style="ellipse;whiteSpace=wrap;html=1;" parent="1" vertex="1">
          <mxGeometry x="345" y="301" width="120" height="50" as="geometry" />
        </mxCell>
        <mxCell id="yhKgC4SvIW92037m_Auo-16" value="" style="endArrow=none;html=1;rounded=0;entryX=0.017;entryY=0.66;entryDx=0;entryDy=0;entryPerimeter=0;" parent="1" source="yhKgC4SvIW92037m_Auo-2" target="yhKgC4SvIW92037m_Auo-10" edge="1">
          <mxGeometry width="50" height="50" relative="1" as="geometry">
            <mxPoint x="230" y="160" as="sourcePoint" />
            <mxPoint x="280" y="110" as="targetPoint" />
          </mxGeometry>
        </mxCell>
        <mxCell id="yhKgC4SvIW92037m_Auo-17" value="" style="endArrow=none;html=1;rounded=0;entryX=0.25;entryY=1;entryDx=0;entryDy=0;entryPerimeter=0;" parent="1" source="yhKgC4SvIW92037m_Auo-9" target="yhKgC4SvIW92037m_Auo-10" edge="1">
          <mxGeometry width="50" height="50" relative="1" as="geometry">
            <mxPoint x="200" y="230" as="sourcePoint" />
            <mxPoint x="350" y="120" as="targetPoint" />
          </mxGeometry>
        </mxCell>
        <mxCell id="yhKgC4SvIW92037m_Auo-21" value="&lt;span style=&quot;font-size: 14px;&quot;&gt;Generate Reports&lt;/span&gt;" style="ellipse;whiteSpace=wrap;html=1;" parent="1" vertex="1">
          <mxGeometry x="345" y="421" width="120" height="50" as="geometry" />
        </mxCell>
        <mxCell id="yhKgC4SvIW92037m_Auo-23" value="&lt;span style=&quot;font-size: 14px;&quot;&gt;Notify HR of issues&lt;/span&gt;" style="ellipse;whiteSpace=wrap;html=1;" parent="1" vertex="1">
          <mxGeometry x="345" y="540" width="120" height="50" as="geometry" />
        </mxCell>
        <mxCell id="yhKgC4SvIW92037m_Auo-27" value="" style="endArrow=none;html=1;rounded=0;entryX=0.088;entryY=0.752;entryDx=0;entryDy=0;entryPerimeter=0;" parent="1" source="yhKgC4SvIW92037m_Auo-9" target="FhQh3N-WsNeQjWpHsYEe-2" edge="1">
          <mxGeometry width="50" height="50" relative="1" as="geometry">
            <mxPoint x="230" y="320" as="sourcePoint" />
            <mxPoint x="280" y="270" as="targetPoint" />
          </mxGeometry>
        </mxCell>
        <mxCell id="yhKgC4SvIW92037m_Auo-28" value="" style="endArrow=none;html=1;rounded=0;" parent="1" source="yhKgC4SvIW92037m_Auo-9" target="yhKgC4SvIW92037m_Auo-23" edge="1">
          <mxGeometry width="50" height="50" relative="1" as="geometry">
            <mxPoint x="200" y="370" as="sourcePoint" />
            <mxPoint x="250" y="320" as="targetPoint" />
          </mxGeometry>
        </mxCell>
        <mxCell id="yhKgC4SvIW92037m_Auo-29" value="&lt;font style=&quot;font-size: 14px;&quot;&gt;AI HR System&lt;/font&gt;" style="text;html=1;align=center;verticalAlign=middle;whiteSpace=wrap;rounded=0;" parent="1" vertex="1">
          <mxGeometry x="430" y="20" width="140" height="30" as="geometry" />
        </mxCell>
        <mxCell id="pM1WiMo1_2RXWzmEMjLO-1" value="Manager&lt;div&gt;&lt;br&gt;&lt;/div&gt;" style="shape=umlActor;verticalLabelPosition=bottom;verticalAlign=top;html=1;outlineConnect=0;" parent="1" vertex="1">
          <mxGeometry x="820" y="690" width="40" height="60" as="geometry" />
        </mxCell>
        <mxCell id="pM1WiMo1_2RXWzmEMjLO-4" value="&lt;span style=&quot;font-size: 14px;&quot;&gt;Resolve Isuues&lt;/span&gt;" style="ellipse;whiteSpace=wrap;html=1;" parent="1" vertex="1">
          <mxGeometry x="540" y="570" width="120" height="50" as="geometry" />
        </mxCell>
        <mxCell id="pM1WiMo1_2RXWzmEMjLO-6" value="&lt;span style=&quot;font-size: 14px;&quot;&gt;Acess Database&lt;/span&gt;" style="ellipse;whiteSpace=wrap;html=1;" parent="1" vertex="1">
          <mxGeometry x="540" y="690" width="120" height="50" as="geometry" />
        </mxCell>
        <mxCell id="pM1WiMo1_2RXWzmEMjLO-10" value="" style="endArrow=none;html=1;rounded=0;" parent="1" source="pM1WiMo1_2RXWzmEMjLO-6" target="pM1WiMo1_2RXWzmEMjLO-1" edge="1">
          <mxGeometry width="50" height="50" relative="1" as="geometry">
            <mxPoint x="530" y="210" as="sourcePoint" />
            <mxPoint x="580" y="160" as="targetPoint" />
          </mxGeometry>
        </mxCell>
        <mxCell id="pM1WiMo1_2RXWzmEMjLO-12" value="HR Department" style="shape=umlActor;verticalLabelPosition=bottom;verticalAlign=top;html=1;outlineConnect=0;" parent="1" vertex="1">
          <mxGeometry x="820" y="490" width="40" height="60" as="geometry" />
        </mxCell>
        <mxCell id="pM1WiMo1_2RXWzmEMjLO-18" value="" style="endArrow=none;html=1;rounded=0;exitX=1;exitY=0.5;exitDx=0;exitDy=0;" parent="1" source="pM1WiMo1_2RXWzmEMjLO-4" edge="1" target="pM1WiMo1_2RXWzmEMjLO-12">
          <mxGeometry width="50" height="50" relative="1" as="geometry">
            <mxPoint x="500" y="410" as="sourcePoint" />
            <mxPoint x="680" y="400" as="targetPoint" />
          </mxGeometry>
        </mxCell>
        <mxCell id="FhQh3N-WsNeQjWpHsYEe-2" value="&lt;font style=&quot;font-size: 15px;&quot;&gt;Extract sentiments&lt;/font&gt;" style="ellipse;whiteSpace=wrap;html=1;" vertex="1" parent="1">
          <mxGeometry x="340" y="180" width="130" height="60" as="geometry" />
        </mxCell>
        <mxCell id="FhQh3N-WsNeQjWpHsYEe-5" value="" style="endArrow=open;html=1;rounded=0;fontSize=12;startSize=8;endSize=8;curved=1;entryX=0.5;entryY=0;entryDx=0;entryDy=0;dashed=1;endFill=0;" edge="1" parent="1" source="FhQh3N-WsNeQjWpHsYEe-2" target="yhKgC4SvIW92037m_Auo-13">
          <mxGeometry width="50" height="50" relative="1" as="geometry">
            <mxPoint x="400" y="511" as="sourcePoint" />
            <mxPoint x="450" y="461" as="targetPoint" />
          </mxGeometry>
        </mxCell>
        <mxCell id="FhQh3N-WsNeQjWpHsYEe-6" value="&lt;font style=&quot;font-size: 13px;&quot;&gt;&amp;lt;&amp;lt;include&amp;gt;&amp;gt;&lt;/font&gt;" style="edgeLabel;html=1;align=center;verticalAlign=middle;resizable=0;points=[];fontSize=12;" vertex="1" connectable="0" parent="FhQh3N-WsNeQjWpHsYEe-5">
          <mxGeometry x="-0.3444" y="1" relative="1" as="geometry">
            <mxPoint x="51" y="7" as="offset" />
          </mxGeometry>
        </mxCell>
        <mxCell id="FhQh3N-WsNeQjWpHsYEe-7" value="" style="endArrow=open;html=1;rounded=0;fontSize=12;startSize=8;endSize=8;curved=1;entryX=0.5;entryY=0;entryDx=0;entryDy=0;dashed=1;endFill=0;exitX=0.5;exitY=1;exitDx=0;exitDy=0;" edge="1" parent="1" source="yhKgC4SvIW92037m_Auo-13" target="yhKgC4SvIW92037m_Auo-21">
          <mxGeometry width="50" height="50" relative="1" as="geometry">
            <mxPoint x="404.57000000000005" y="361" as="sourcePoint" />
            <mxPoint x="404.57000000000005" y="441" as="targetPoint" />
          </mxGeometry>
        </mxCell>
        <mxCell id="FhQh3N-WsNeQjWpHsYEe-8" value="&lt;font style=&quot;font-size: 13px;&quot;&gt;&amp;lt;&amp;lt;include&amp;gt;&amp;gt;&lt;/font&gt;" style="edgeLabel;html=1;align=center;verticalAlign=middle;resizable=0;points=[];fontSize=12;" vertex="1" connectable="0" parent="FhQh3N-WsNeQjWpHsYEe-7">
          <mxGeometry x="-0.3444" y="1" relative="1" as="geometry">
            <mxPoint x="51" y="7" as="offset" />
          </mxGeometry>
        </mxCell>
        <mxCell id="FhQh3N-WsNeQjWpHsYEe-9" value="" style="endArrow=open;html=1;rounded=0;fontSize=12;startSize=8;endSize=8;curved=1;entryX=0.989;entryY=0.682;entryDx=0;entryDy=0;dashed=1;endFill=0;exitX=0.021;exitY=0.324;exitDx=0;exitDy=0;exitPerimeter=0;entryPerimeter=0;" edge="1" parent="1" source="FhQh3N-WsNeQjWpHsYEe-11" target="yhKgC4SvIW92037m_Auo-21">
          <mxGeometry width="50" height="50" relative="1" as="geometry">
            <mxPoint x="467.0995998592166" y="518.522059201903" as="sourcePoint" />
            <mxPoint x="305" y="511" as="targetPoint" />
          </mxGeometry>
        </mxCell>
        <mxCell id="FhQh3N-WsNeQjWpHsYEe-10" value="&lt;font style=&quot;font-size: 13px;&quot;&gt;&amp;lt;&amp;lt;extend&amp;gt;&amp;gt;&lt;/font&gt;" style="edgeLabel;html=1;align=center;verticalAlign=middle;resizable=0;points=[];fontSize=12;" vertex="1" connectable="0" parent="FhQh3N-WsNeQjWpHsYEe-9">
          <mxGeometry x="-0.3444" y="1" relative="1" as="geometry">
            <mxPoint x="31" y="-25" as="offset" />
          </mxGeometry>
        </mxCell>
        <mxCell id="FhQh3N-WsNeQjWpHsYEe-11" value="&lt;span style=&quot;font-size: 14px;&quot;&gt;Access report&lt;/span&gt;" style="ellipse;whiteSpace=wrap;html=1;" vertex="1" parent="1">
          <mxGeometry x="530" y="460" width="120" height="50" as="geometry" />
        </mxCell>
        <mxCell id="FhQh3N-WsNeQjWpHsYEe-12" value="" style="endArrow=none;html=1;rounded=0;fontSize=12;startSize=8;endSize=8;curved=1;exitX=1.012;exitY=0.329;exitDx=0;exitDy=0;exitPerimeter=0;" edge="1" parent="1" source="FhQh3N-WsNeQjWpHsYEe-11" target="pM1WiMo1_2RXWzmEMjLO-12">
          <mxGeometry width="50" height="50" relative="1" as="geometry">
            <mxPoint x="790" y="460" as="sourcePoint" />
            <mxPoint x="670" y="450" as="targetPoint" />
          </mxGeometry>
        </mxCell>
      </root>
    </mxGraphModel>
  </diagram>
</mxfile>
